<mxfile host="Electron" agent="Mozilla/5.0 (Windows NT 10.0; Win64; x64) AppleWebKit/537.36 (KHTML, like Gecko) draw.io/27.0.9 Chrome/134.0.6998.205 Electron/35.4.0 Safari/537.36" version="27.0.9">
  <diagram name="페이지-1" id="Z9kN40x6peERGM2wXOfV">
    <mxGraphModel dx="2401" dy="1129" grid="1" gridSize="10" guides="1" tooltips="1" connect="1" arrows="1" fold="1" page="1" pageScale="1" pageWidth="827" pageHeight="1169" math="0" shadow="0">
      <root>
        <mxCell id="0" />
        <mxCell id="1" parent="0" />
        <mxCell id="bVUollkUNjUiDKfFXJ3L-25" style="edgeStyle=orthogonalEdgeStyle;rounded=0;orthogonalLoop=1;jettySize=auto;html=1;exitX=0.5;exitY=1;exitDx=0;exitDy=0;entryX=0.5;entryY=0;entryDx=0;entryDy=0;" parent="1" source="bVUollkUNjUiDKfFXJ3L-1" target="bVUollkUNjUiDKfFXJ3L-2" edge="1">
          <mxGeometry relative="1" as="geometry" />
        </mxCell>
        <mxCell id="bVUollkUNjUiDKfFXJ3L-1" value="S0&lt;div&gt;&lt;br&gt;&lt;/div&gt;&lt;div&gt;R1= 1&lt;/div&gt;&lt;div&gt;---------------------------&lt;/div&gt;&lt;div&gt;RF_Src_Mux_Sel = 1&lt;/div&gt;&lt;div&gt;r_addr_1 = x&lt;/div&gt;&lt;div&gt;r_addr_2 = x&lt;/div&gt;&lt;div&gt;wr_addr = 1&lt;/div&gt;&lt;div&gt;wr_en = 1&lt;/div&gt;&lt;div&gt;opcode = x&lt;/div&gt;&lt;div&gt;outport_en = 0&amp;nbsp;&lt;/div&gt;" style="rounded=0;whiteSpace=wrap;html=1;" parent="1" vertex="1">
          <mxGeometry x="-540" y="140" width="270" height="190" as="geometry" />
        </mxCell>
        <mxCell id="bVUollkUNjUiDKfFXJ3L-26" style="edgeStyle=orthogonalEdgeStyle;rounded=0;orthogonalLoop=1;jettySize=auto;html=1;exitX=0.5;exitY=1;exitDx=0;exitDy=0;entryX=0.5;entryY=0;entryDx=0;entryDy=0;" parent="1" source="bVUollkUNjUiDKfFXJ3L-2" target="bVUollkUNjUiDKfFXJ3L-3" edge="1">
          <mxGeometry relative="1" as="geometry" />
        </mxCell>
        <mxCell id="bVUollkUNjUiDKfFXJ3L-2" value="S1&lt;div&gt;&lt;br&gt;&lt;/div&gt;&lt;div&gt;R2= 0&lt;/div&gt;&lt;div&gt;---------------------------&lt;/div&gt;&lt;div&gt;RF_Src_Mux_Sel = 0&lt;/div&gt;&lt;div&gt;r_addr_1 = 0&lt;/div&gt;&lt;div&gt;r_addr_2 = 0&lt;/div&gt;&lt;div&gt;wr_addr = 2&amp;nbsp;&lt;/div&gt;&lt;div&gt;wr_en = 1&lt;/div&gt;&lt;div&gt;opcode = x&lt;/div&gt;&lt;div&gt;outport_en = 0&amp;nbsp;&lt;/div&gt;" style="rounded=0;whiteSpace=wrap;html=1;" parent="1" vertex="1">
          <mxGeometry x="-540" y="470" width="270" height="190" as="geometry" />
        </mxCell>
        <mxCell id="bVUollkUNjUiDKfFXJ3L-27" style="edgeStyle=orthogonalEdgeStyle;rounded=0;orthogonalLoop=1;jettySize=auto;html=1;exitX=0.5;exitY=1;exitDx=0;exitDy=0;entryX=0.5;entryY=0;entryDx=0;entryDy=0;" parent="1" source="bVUollkUNjUiDKfFXJ3L-3" target="bVUollkUNjUiDKfFXJ3L-4" edge="1">
          <mxGeometry relative="1" as="geometry" />
        </mxCell>
        <mxCell id="bVUollkUNjUiDKfFXJ3L-3" value="S2&lt;div&gt;&lt;br&gt;&lt;/div&gt;&lt;div&gt;R3= 0&lt;/div&gt;&lt;div&gt;---------------------------&lt;/div&gt;&lt;div&gt;RF_Src_Mux_Sel = 0&lt;/div&gt;&lt;div&gt;r_addr_1 = 0&lt;/div&gt;&lt;div&gt;r_addr_2 = 0&lt;/div&gt;&lt;div&gt;wr_addr = 3&amp;nbsp;&lt;/div&gt;&lt;div&gt;wr_en = 1&lt;/div&gt;&lt;div&gt;opcode = x&lt;/div&gt;&lt;div&gt;outport_en = 0&amp;nbsp;&lt;/div&gt;" style="rounded=0;whiteSpace=wrap;html=1;" parent="1" vertex="1">
          <mxGeometry x="-540" y="760" width="270" height="190" as="geometry" />
        </mxCell>
        <mxCell id="bVUollkUNjUiDKfFXJ3L-28" style="edgeStyle=orthogonalEdgeStyle;rounded=0;orthogonalLoop=1;jettySize=auto;html=1;exitX=0.5;exitY=1;exitDx=0;exitDy=0;entryX=0.5;entryY=0;entryDx=0;entryDy=0;" parent="1" source="bVUollkUNjUiDKfFXJ3L-4" target="bVUollkUNjUiDKfFXJ3L-5" edge="1">
          <mxGeometry relative="1" as="geometry" />
        </mxCell>
        <mxCell id="bVUollkUNjUiDKfFXJ3L-4" value="S3&lt;div&gt;&lt;br&gt;&lt;/div&gt;&lt;div&gt;R4= 0&lt;/div&gt;&lt;div&gt;---------------------------&lt;/div&gt;&lt;div&gt;RF_Src_Mux_Sel = 0&lt;/div&gt;&lt;div&gt;r_addr_1 = 0&lt;/div&gt;&lt;div&gt;r_addr_2 = 0&lt;/div&gt;&lt;div&gt;wr_addr = 4&amp;nbsp;&lt;/div&gt;&lt;div&gt;wr_en = 1&lt;/div&gt;&lt;div&gt;opcode = x&lt;/div&gt;&lt;div&gt;outport_en = 0&amp;nbsp;&lt;/div&gt;" style="rounded=0;whiteSpace=wrap;html=1;" parent="1" vertex="1">
          <mxGeometry x="-540" y="1050" width="270" height="190" as="geometry" />
        </mxCell>
        <mxCell id="bVUollkUNjUiDKfFXJ3L-29" style="edgeStyle=orthogonalEdgeStyle;rounded=0;orthogonalLoop=1;jettySize=auto;html=1;exitX=0.5;exitY=1;exitDx=0;exitDy=0;entryX=0.5;entryY=0;entryDx=0;entryDy=0;" parent="1" source="bVUollkUNjUiDKfFXJ3L-5" target="bVUollkUNjUiDKfFXJ3L-6" edge="1">
          <mxGeometry relative="1" as="geometry" />
        </mxCell>
        <mxCell id="bVUollkUNjUiDKfFXJ3L-5" value="S4&lt;div&gt;&lt;br&gt;&lt;/div&gt;&lt;div&gt;R2 = R1 + R1&lt;/div&gt;&lt;div&gt;---------------------------&lt;/div&gt;&lt;div&gt;RF_Src_Mux_Sel = 0&lt;/div&gt;&lt;div&gt;r_addr_1 = 1&lt;/div&gt;&lt;div&gt;r_addr_2 = 1&lt;/div&gt;&lt;div&gt;wr_addr = 2&lt;/div&gt;&lt;div&gt;wr_en = 1&lt;/div&gt;&lt;div&gt;opcode = 0&lt;/div&gt;&lt;div&gt;outport_en = 0&amp;nbsp;&lt;/div&gt;" style="rounded=0;whiteSpace=wrap;html=1;" parent="1" vertex="1">
          <mxGeometry x="-540" y="1350" width="270" height="190" as="geometry" />
        </mxCell>
        <mxCell id="bVUollkUNjUiDKfFXJ3L-6" value="S5&lt;div&gt;&lt;br&gt;&lt;/div&gt;&lt;div&gt;R3 = R2 + R1&lt;/div&gt;&lt;div&gt;---------------------------&lt;/div&gt;&lt;div&gt;RF_Src_Mux_Sel = 0&lt;/div&gt;&lt;div&gt;r_addr_1 = 2&lt;/div&gt;&lt;div&gt;r_addr_2 = 1&lt;/div&gt;&lt;div&gt;wr_addr = 3&lt;/div&gt;&lt;div&gt;wr_en = 1&lt;/div&gt;&lt;div&gt;opcode = 0&lt;/div&gt;&lt;div&gt;outport_en = 0&amp;nbsp;&lt;/div&gt;" style="rounded=0;whiteSpace=wrap;html=1;" parent="1" vertex="1">
          <mxGeometry x="-540" y="1620" width="270" height="190" as="geometry" />
        </mxCell>
        <mxCell id="bVUollkUNjUiDKfFXJ3L-31" style="edgeStyle=orthogonalEdgeStyle;rounded=0;orthogonalLoop=1;jettySize=auto;html=1;exitX=0.5;exitY=1;exitDx=0;exitDy=0;entryX=0.5;entryY=0;entryDx=0;entryDy=0;" parent="1" source="bVUollkUNjUiDKfFXJ3L-7" target="bVUollkUNjUiDKfFXJ3L-8" edge="1">
          <mxGeometry relative="1" as="geometry" />
        </mxCell>
        <mxCell id="bVUollkUNjUiDKfFXJ3L-7" value="S6&lt;div&gt;&lt;br&gt;&lt;/div&gt;&lt;div&gt;R4 = R3 - R1&lt;/div&gt;&lt;div&gt;---------------------------&lt;/div&gt;&lt;div&gt;RF_Src_Mux_Sel = 0&lt;/div&gt;&lt;div&gt;r_addr_1 = 3&lt;/div&gt;&lt;div&gt;r_addr_2 = 1&lt;/div&gt;&lt;div&gt;wr_addr = 4&lt;/div&gt;&lt;div&gt;wr_en = 1&lt;/div&gt;&lt;div&gt;opcode = 1&lt;/div&gt;&lt;div&gt;outport_en = 0&amp;nbsp;&lt;/div&gt;" style="rounded=0;whiteSpace=wrap;html=1;" parent="1" vertex="1">
          <mxGeometry x="-530" y="1910" width="270" height="190" as="geometry" />
        </mxCell>
        <mxCell id="bVUollkUNjUiDKfFXJ3L-32" style="edgeStyle=orthogonalEdgeStyle;rounded=0;orthogonalLoop=1;jettySize=auto;html=1;exitX=0.5;exitY=1;exitDx=0;exitDy=0;entryX=0.5;entryY=0;entryDx=0;entryDy=0;" parent="1" source="bVUollkUNjUiDKfFXJ3L-8" target="bVUollkUNjUiDKfFXJ3L-9" edge="1">
          <mxGeometry relative="1" as="geometry" />
        </mxCell>
        <mxCell id="bVUollkUNjUiDKfFXJ3L-8" value="S7&lt;div&gt;&lt;br&gt;&lt;/div&gt;&lt;div&gt;R1 = R1 | R2&lt;/div&gt;&lt;div&gt;---------------------------&lt;/div&gt;&lt;div&gt;RF_Src_Mux_Sel = 0&lt;/div&gt;&lt;div&gt;r_addr_1 = 1&lt;/div&gt;&lt;div&gt;r_addr_2 = 2&lt;/div&gt;&lt;div&gt;wr_addr = 1&lt;/div&gt;&lt;div&gt;wr_en = 1&lt;/div&gt;&lt;div&gt;opcode = 3&lt;/div&gt;&lt;div&gt;outport_en = 0&amp;nbsp;&lt;/div&gt;" style="rounded=0;whiteSpace=wrap;html=1;" parent="1" vertex="1">
          <mxGeometry x="-530" y="2200" width="270" height="190" as="geometry" />
        </mxCell>
        <mxCell id="bVUollkUNjUiDKfFXJ3L-33" style="edgeStyle=orthogonalEdgeStyle;rounded=0;orthogonalLoop=1;jettySize=auto;html=1;exitX=0.5;exitY=1;exitDx=0;exitDy=0;entryX=0.5;entryY=0;entryDx=0;entryDy=0;" parent="1" source="bVUollkUNjUiDKfFXJ3L-9" target="bVUollkUNjUiDKfFXJ3L-10" edge="1">
          <mxGeometry relative="1" as="geometry" />
        </mxCell>
        <mxCell id="bVUollkUNjUiDKfFXJ3L-9" value="S8&lt;div&gt;&lt;br&gt;&lt;/div&gt;&lt;div&gt;R4 &amp;lt; R2&lt;/div&gt;&lt;div&gt;---------------------------&lt;/div&gt;&lt;div&gt;RF_Src_Mux_Sel = X&lt;/div&gt;&lt;div&gt;r_addr_1 = 4&lt;/div&gt;&lt;div&gt;r_addr_2 = 2&lt;/div&gt;&lt;div&gt;wr_addr = X&lt;/div&gt;&lt;div&gt;wr_en = 0&lt;/div&gt;&lt;div&gt;opcode = X&lt;/div&gt;&lt;div&gt;outport_en = 0&amp;nbsp;&lt;/div&gt;" style="rounded=0;whiteSpace=wrap;html=1;" parent="1" vertex="1">
          <mxGeometry x="-530" y="2490" width="270" height="190" as="geometry" />
        </mxCell>
        <mxCell id="bVUollkUNjUiDKfFXJ3L-11" style="edgeStyle=orthogonalEdgeStyle;rounded=0;orthogonalLoop=1;jettySize=auto;html=1;exitX=0;exitY=0.5;exitDx=0;exitDy=0;entryX=0;entryY=0.5;entryDx=0;entryDy=0;" parent="1" source="bVUollkUNjUiDKfFXJ3L-10" target="bVUollkUNjUiDKfFXJ3L-7" edge="1">
          <mxGeometry relative="1" as="geometry">
            <Array as="points">
              <mxPoint x="-670" y="2790" />
              <mxPoint x="-670" y="2005" />
            </Array>
          </mxGeometry>
        </mxCell>
        <mxCell id="bVUollkUNjUiDKfFXJ3L-12" value="&lt;font style=&quot;font-size: 21px;&quot;&gt;YES&lt;/font&gt;" style="edgeLabel;html=1;align=center;verticalAlign=middle;resizable=0;points=[];" parent="bVUollkUNjUiDKfFXJ3L-11" vertex="1" connectable="0">
          <mxGeometry x="-0.0028" y="-3" relative="1" as="geometry">
            <mxPoint as="offset" />
          </mxGeometry>
        </mxCell>
        <mxCell id="bVUollkUNjUiDKfFXJ3L-10" value="R4 &amp;lt; R2" style="rhombus;whiteSpace=wrap;html=1;" parent="1" vertex="1">
          <mxGeometry x="-520" y="2720" width="250" height="140" as="geometry" />
        </mxCell>
        <mxCell id="bVUollkUNjUiDKfFXJ3L-34" style="edgeStyle=orthogonalEdgeStyle;rounded=0;orthogonalLoop=1;jettySize=auto;html=1;exitX=0.5;exitY=1;exitDx=0;exitDy=0;entryX=0.5;entryY=0;entryDx=0;entryDy=0;" parent="1" source="bVUollkUNjUiDKfFXJ3L-13" target="bVUollkUNjUiDKfFXJ3L-16" edge="1">
          <mxGeometry relative="1" as="geometry" />
        </mxCell>
        <mxCell id="bVUollkUNjUiDKfFXJ3L-13" value="S9&lt;div&gt;&lt;br&gt;&lt;/div&gt;&lt;div&gt;R4 = R4 &amp;amp; R3&lt;/div&gt;&lt;div&gt;---------------------------&lt;/div&gt;&lt;div&gt;RF_Src_Mux_Sel = 0&lt;/div&gt;&lt;div&gt;r_addr_1 = 4&lt;/div&gt;&lt;div&gt;r_addr_2 = 3&lt;/div&gt;&lt;div&gt;wr_addr = 4&lt;/div&gt;&lt;div&gt;wr_en = 1&lt;/div&gt;&lt;div&gt;opcode = 2&lt;/div&gt;&lt;div&gt;outport_en = 0&amp;nbsp;&lt;/div&gt;" style="rounded=0;whiteSpace=wrap;html=1;" parent="1" vertex="1">
          <mxGeometry x="-520" y="2980" width="270" height="190" as="geometry" />
        </mxCell>
        <mxCell id="bVUollkUNjUiDKfFXJ3L-14" style="edgeStyle=orthogonalEdgeStyle;rounded=0;orthogonalLoop=1;jettySize=auto;html=1;exitX=0.5;exitY=1;exitDx=0;exitDy=0;entryX=0.463;entryY=0;entryDx=0;entryDy=0;entryPerimeter=0;" parent="1" source="bVUollkUNjUiDKfFXJ3L-10" target="bVUollkUNjUiDKfFXJ3L-13" edge="1">
          <mxGeometry relative="1" as="geometry" />
        </mxCell>
        <mxCell id="bVUollkUNjUiDKfFXJ3L-15" value="&lt;font style=&quot;font-size: 21px;&quot;&gt;NO&lt;/font&gt;" style="edgeLabel;html=1;align=center;verticalAlign=middle;resizable=0;points=[];" parent="1" vertex="1" connectable="0">
          <mxGeometry x="-400" y="2910" as="geometry" />
        </mxCell>
        <mxCell id="bVUollkUNjUiDKfFXJ3L-35" style="edgeStyle=orthogonalEdgeStyle;rounded=0;orthogonalLoop=1;jettySize=auto;html=1;exitX=0.5;exitY=1;exitDx=0;exitDy=0;entryX=0.5;entryY=0;entryDx=0;entryDy=0;" parent="1" source="bVUollkUNjUiDKfFXJ3L-16" target="bVUollkUNjUiDKfFXJ3L-17" edge="1">
          <mxGeometry relative="1" as="geometry" />
        </mxCell>
        <mxCell id="bVUollkUNjUiDKfFXJ3L-16" value="S10&lt;div&gt;&lt;br&gt;&lt;/div&gt;&lt;div&gt;R4 = R2 + R3&lt;/div&gt;&lt;div&gt;---------------------------&lt;/div&gt;&lt;div&gt;RF_Src_Mux_Sel = 0&lt;/div&gt;&lt;div&gt;r_addr_1 = 2&lt;/div&gt;&lt;div&gt;r_addr_2 = 3&lt;/div&gt;&lt;div&gt;wr_addr = 4&lt;/div&gt;&lt;div&gt;wr_en = 1&lt;/div&gt;&lt;div&gt;opcode = 0&lt;/div&gt;&lt;div&gt;outport_en = 0&amp;nbsp;&lt;/div&gt;" style="rounded=0;whiteSpace=wrap;html=1;" parent="1" vertex="1">
          <mxGeometry x="-520" y="3290" width="270" height="190" as="geometry" />
        </mxCell>
        <mxCell id="bVUollkUNjUiDKfFXJ3L-20" style="edgeStyle=orthogonalEdgeStyle;rounded=0;orthogonalLoop=1;jettySize=auto;html=1;exitX=0.5;exitY=1;exitDx=0;exitDy=0;entryX=0.5;entryY=0;entryDx=0;entryDy=0;" parent="1" source="bVUollkUNjUiDKfFXJ3L-17" target="bVUollkUNjUiDKfFXJ3L-18" edge="1">
          <mxGeometry relative="1" as="geometry" />
        </mxCell>
        <mxCell id="bVUollkUNjUiDKfFXJ3L-17" value="S11&lt;div&gt;&lt;br&gt;&lt;/div&gt;&lt;div&gt;R2 &amp;lt; R4&lt;/div&gt;&lt;div&gt;---------------------------&lt;/div&gt;&lt;div&gt;RF_Src_Mux_Sel = 0&lt;/div&gt;&lt;div&gt;r_addr_1 = 2&lt;/div&gt;&lt;div&gt;r_addr_2 = 4&lt;/div&gt;&lt;div&gt;wr_addr = x&lt;/div&gt;&lt;div&gt;wr_en = 0&lt;/div&gt;&lt;div&gt;opcode = X&lt;/div&gt;&lt;div&gt;outport_en = 0&amp;nbsp;&lt;/div&gt;" style="rounded=0;whiteSpace=wrap;html=1;" parent="1" vertex="1">
          <mxGeometry x="-520" y="3560" width="270" height="190" as="geometry" />
        </mxCell>
        <mxCell id="bVUollkUNjUiDKfFXJ3L-21" style="edgeStyle=orthogonalEdgeStyle;rounded=0;orthogonalLoop=1;jettySize=auto;html=1;exitX=0;exitY=0.5;exitDx=0;exitDy=0;entryX=0;entryY=0.5;entryDx=0;entryDy=0;" parent="1" source="bVUollkUNjUiDKfFXJ3L-18" target="bVUollkUNjUiDKfFXJ3L-5" edge="1">
          <mxGeometry relative="1" as="geometry">
            <Array as="points">
              <mxPoint x="-920" y="3900" />
              <mxPoint x="-920" y="1445" />
            </Array>
          </mxGeometry>
        </mxCell>
        <mxCell id="bVUollkUNjUiDKfFXJ3L-23" style="edgeStyle=orthogonalEdgeStyle;rounded=0;orthogonalLoop=1;jettySize=auto;html=1;exitX=0.5;exitY=1;exitDx=0;exitDy=0;entryX=0.5;entryY=0;entryDx=0;entryDy=0;" parent="1" source="bVUollkUNjUiDKfFXJ3L-18" target="bVUollkUNjUiDKfFXJ3L-19" edge="1">
          <mxGeometry relative="1" as="geometry" />
        </mxCell>
        <mxCell id="bVUollkUNjUiDKfFXJ3L-18" value="R2 &amp;lt; R4" style="rhombus;whiteSpace=wrap;html=1;" parent="1" vertex="1">
          <mxGeometry x="-510" y="3830" width="250" height="140" as="geometry" />
        </mxCell>
        <mxCell id="bVUollkUNjUiDKfFXJ3L-19" value="S12&lt;div&gt;&lt;br&gt;&lt;/div&gt;&lt;div&gt;halt&lt;/div&gt;&lt;div&gt;---------------------------&lt;/div&gt;&lt;div&gt;RF_Src_Mux_Sel = 0&lt;/div&gt;&lt;div&gt;r_addr_1 = 0&lt;/div&gt;&lt;div&gt;r_addr_2 = 0&lt;/div&gt;&lt;div&gt;wr_addr = x&lt;/div&gt;&lt;div&gt;wr_en = 0&lt;/div&gt;&lt;div&gt;opcode = X&lt;/div&gt;&lt;div&gt;outport_en = 0&amp;nbsp;&lt;/div&gt;" style="rounded=0;whiteSpace=wrap;html=1;" parent="1" vertex="1">
          <mxGeometry x="-520" y="4080" width="270" height="190" as="geometry" />
        </mxCell>
        <mxCell id="bVUollkUNjUiDKfFXJ3L-22" value="&lt;font style=&quot;font-size: 21px;&quot;&gt;YES&lt;/font&gt;" style="edgeLabel;html=1;align=center;verticalAlign=middle;resizable=0;points=[];" parent="1" vertex="1" connectable="0">
          <mxGeometry x="-960" y="2830" as="geometry">
            <mxPoint x="32" y="-146" as="offset" />
          </mxGeometry>
        </mxCell>
        <mxCell id="bVUollkUNjUiDKfFXJ3L-24" value="&lt;font style=&quot;font-size: 21px;&quot;&gt;NO&lt;/font&gt;" style="edgeLabel;html=1;align=center;verticalAlign=middle;resizable=0;points=[];" parent="1" vertex="1" connectable="0">
          <mxGeometry x="-390" y="4020" as="geometry" />
        </mxCell>
        <mxCell id="bVUollkUNjUiDKfFXJ3L-30" style="edgeStyle=orthogonalEdgeStyle;rounded=0;orthogonalLoop=1;jettySize=auto;html=1;exitX=0.5;exitY=1;exitDx=0;exitDy=0;entryX=0.462;entryY=-0.016;entryDx=0;entryDy=0;entryPerimeter=0;" parent="1" source="bVUollkUNjUiDKfFXJ3L-6" target="bVUollkUNjUiDKfFXJ3L-7" edge="1">
          <mxGeometry relative="1" as="geometry" />
        </mxCell>
      </root>
    </mxGraphModel>
  </diagram>
</mxfile>
